<?xml version="1.0" standalone="no"?>
<!DOCTYPE svg PUBLIC "-//W3C//DTD SVG 20010904//EN"
 "http://www.w3.org/TR/2001/REC-SVG-20010904/DTD/svg10.dtd">
<svg version="1.0" xmlns="http://www.w3.org/2000/svg"
 width="800.000000pt" height="800.000000pt" viewBox="0 0 800.000000 800.000000"
 preserveAspectRatio="xMidYMid meet">
<metadata>
Created by potrace 1.11, written by Peter Selinger 2001-2013
</metadata>
<g transform="translate(0.000000,800.000000) scale(0.100000,-0.100000)"
fill="#000000" stroke="none">
<path d="M1741 7989 c-141 -42 -220 -219 -152 -344 25 -47 44 -78 51 -85 3 -3
28 -36 55 -75 27 -38 53 -74 57 -80 5 -5 69 -95 143 -200 74 -104 138 -194
142 -200 9 -11 444 -617 483 -674 14 -20 126 -177 250 -349 124 -172 230 -321
235 -330 6 -9 29 -43 53 -75 44 -58 111 -177 117 -206 2 -9 10 -43 17 -76 15
-62 16 -175 3 -235 -11 -55 -13 -65 -15 -67 -2 -2 -3 -7 -4 -12 0 -5 -4 -13
-8 -17 -5 -4 -8 -13 -8 -20 0 -7 -5 -25 -12 -41 -12 -31 -12 -31 -25 -88 -10
-42 -9 -117 2 -175 12 -66 68 -163 159 -281 50 -64 132 -170 181 -234 50 -65
98 -126 108 -136 9 -11 17 -23 17 -28 0 -5 3 -11 8 -13 4 -1 36 -41 72 -88 35
-47 69 -90 75 -96 5 -7 35 -44 65 -84 30 -40 76 -100 102 -134 27 -33 51 -65
56 -71 43 -56 79 -102 87 -111 5 -7 19 -24 30 -40 11 -15 56 -73 100 -130 44
-56 89 -115 100 -130 11 -15 28 -37 38 -48 9 -12 53 -68 98 -126 44 -58 86
-112 93 -120 6 -9 32 -42 56 -75 25 -33 47 -62 50 -65 6 -5 88 -111 140 -180
46 -60 251 -325 268 -345 10 -11 28 -36 42 -55 14 -19 30 -42 37 -50 28 -34
110 -139 133 -170 27 -36 96 -124 116 -150 7 -8 77 -98 155 -200 79 -102 214
-277 300 -389 87 -112 162 -214 167 -225 31 -66 35 -111 15 -179 -30 -101
-106 -158 -218 -163 -69 -3 -139 26 -180 74 -14 16 -246 362 -516 768 -270
406 -496 742 -501 745 -5 3 -9 8 -7 10 2 3 -860 1304 -884 1334 -4 6 -48 71
-97 145 -49 74 -94 142 -100 150 -6 8 -16 24 -23 36 -12 21 -85 130 -100 149
-28 36 -137 206 -137 214 0 5 -4 11 -8 13 -5 2 -38 48 -74 103 -83 126 -134
184 -200 228 -87 56 -144 70 -308 73 -194 3 -278 27 -406 115 -41 28 -155 149
-163 172 -2 7 -7 14 -11 17 -4 3 -20 24 -36 47 -65 94 -248 348 -253 353 -3 3
-23 30 -43 60 -39 59 -281 398 -295 415 -14 16 -277 385 -288 403 -5 9 -12 19
-15 22 -7 6 -90 122 -155 215 -27 39 -53 75 -57 80 -10 12 -127 174 -148 206
-8 12 -37 53 -65 91 -129 179 -150 200 -235 221 -113 29 -228 -23 -283 -128
-24 -46 -31 -140 -14 -188 11 -32 103 -173 139 -213 10 -11 18 -23 18 -27 0
-4 7 -15 15 -24 8 -10 48 -65 90 -123 41 -58 81 -114 89 -125 8 -11 53 -74
100 -140 47 -66 89 -124 93 -130 5 -5 28 -37 51 -70 62 -88 63 -90 154 -215
82 -113 113 -158 133 -188 6 -9 20 -27 33 -41 12 -14 22 -31 22 -38 0 -6 4
-13 8 -15 8 -3 322 -434 347 -476 6 -9 26 -38 45 -63 19 -26 42 -57 50 -69 23
-34 137 -191 162 -225 83 -109 313 -295 363 -295 8 0 15 -4 15 -8 0 -10 150
-68 225 -86 101 -25 116 -27 239 -31 l118 -3 54 -81 c30 -44 54 -85 54 -90 0
-5 4 -11 8 -13 11 -4 272 -396 272 -407 0 -5 4 -11 8 -13 11 -4 332 -487 332
-499 0 -5 4 -9 8 -9 5 0 15 -12 23 -27 8 -15 19 -35 26 -43 31 -40 123 -182
123 -190 0 -4 3 -10 8 -12 9 -4 104 -145 114 -170 4 -10 12 -18 17 -18 5 0 13
-10 17 -22 3 -12 11 -26 15 -32 24 -28 89 -128 89 -136 0 -4 3 -10 8 -12 4 -1
32 -41 63 -88 30 -47 64 -98 75 -114 10 -16 24 -36 29 -45 24 -38 50 -76 55
-81 6 -5 38 -54 55 -82 5 -10 23 -37 39 -60 68 -99 82 -121 106 -157 14 -21
34 -51 44 -67 11 -16 45 -67 75 -114 31 -47 59 -86 64 -88 4 -2 7 -10 7 -18 0
-8 5 -14 10 -14 6 0 10 -4 10 -9 0 -12 122 -195 133 -199 4 -2 7 -9 8 -15 0
-7 20 -39 44 -72 25 -33 52 -75 61 -92 9 -18 20 -33 25 -33 5 0 9 -7 9 -15 0
-8 5 -15 11 -15 5 0 7 -5 4 -10 -3 -6 -2 -10 4 -10 6 0 17 -15 26 -34 9 -18
25 -43 35 -54 11 -12 20 -24 20 -27 0 -3 16 -28 35 -55 19 -27 35 -54 35 -60
0 -5 4 -10 8 -10 4 0 21 -22 37 -50 16 -27 33 -50 37 -50 4 0 8 -6 8 -13 0 -7
8 -22 18 -33 9 -10 23 -31 31 -46 8 -15 22 -37 33 -47 10 -11 18 -23 18 -27 0
-3 17 -29 38 -58 70 -96 163 -177 257 -224 74 -37 135 -63 135 -56 0 3 8 1 18
-5 41 -21 206 -31 302 -18 47 7 83 14 88 17 1 2 5 3 10 4 44 11 122 41 122 48
0 4 5 8 10 8 24 0 128 77 191 141 52 54 137 176 145 209 0 3 6 19 13 35 7 17
15 38 17 47 2 10 7 28 10 40 22 83 27 228 11 315 -9 50 -30 117 -39 127 -4 6
-8 18 -8 28 0 10 -5 18 -10 18 -6 0 -9 3 -8 8 4 11 -83 152 -93 152 -5 0 -9 5
-9 11 0 6 -6 16 -12 24 -7 7 -23 26 -35 41 -12 16 -64 83 -115 149 -51 66 -96
125 -100 130 -5 6 -61 78 -126 162 -64 84 -144 186 -177 229 -33 42 -64 83
-70 92 -5 8 -17 23 -25 32 -8 9 -22 27 -30 39 -8 13 -25 35 -38 50 -12 14 -45
55 -72 91 -27 36 -53 70 -58 75 -4 6 -41 53 -81 105 -92 121 -123 161 -136
174 -5 6 -37 47 -70 91 -56 75 -217 284 -270 350 -24 30 -228 296 -268 349
-12 15 -34 42 -48 60 -14 17 -86 110 -159 206 -74 96 -137 177 -140 180 -3 3
-39 50 -80 105 -41 55 -77 102 -80 105 -3 3 -21 25 -40 50 -19 25 -39 50 -45
57 -15 18 -28 34 -53 68 -12 17 -31 41 -42 55 -11 14 -49 63 -85 110 -35 47
-68 90 -72 95 -5 6 -24 30 -43 55 -19 25 -37 47 -40 50 -3 3 -26 32 -51 66
-46 61 -46 61 -33 100 52 148 68 240 68 394 1 306 -83 510 -348 855 -9 11 -46
63 -83 115 -37 52 -69 97 -72 100 -3 3 -10 12 -16 22 -17 28 -128 183 -135
188 -4 3 -15 20 -25 38 -11 17 -23 32 -27 32 -4 0 -8 6 -8 13 0 7 -11 24 -25
39 -14 15 -25 32 -25 38 0 5 -4 10 -10 10 -5 0 -10 6 -10 14 0 8 -4 16 -8 18
-5 2 -53 66 -107 143 -55 77 -103 145 -108 150 -32 42 -107 147 -107 150 0 3
-7 13 -15 22 -8 10 -48 65 -89 123 -41 58 -79 110 -84 115 -4 6 -28 39 -51 74
-24 35 -50 71 -57 80 -7 9 -47 63 -88 121 -41 58 -79 110 -83 115 -5 6 -35 47
-66 93 -32 45 -73 93 -91 107 -62 47 -153 65 -225 44z"/>
<path d="M6365 7980 c-179 -32 -303 -70 -445 -137 -163 -77 -477 -267 -488
-295 -2 -4 -8 -8 -14 -8 -6 0 -18 -8 -27 -18 -9 -10 -32 -29 -51 -42 -51 -36
-90 -71 -230 -210 -140 -139 -195 -202 -288 -329 -35 -47 -69 -93 -75 -101 -7
-8 -39 -58 -72 -110 -33 -52 -62 -97 -65 -100 -5 -5 -25 -41 -63 -115 -12 -22
-24 -42 -28 -45 -4 -3 -11 -18 -14 -33 -4 -15 -11 -27 -16 -27 -5 0 -9 -6 -9
-13 0 -6 -11 -33 -25 -59 -14 -27 -25 -50 -25 -53 0 -3 -11 -29 -23 -57 -46
-103 -126 -339 -141 -414 -3 -10 -10 -41 -16 -69 -6 -27 -14 -60 -16 -72 -2
-13 -6 -35 -9 -50 -7 -37 -16 -110 -19 -149 -1 -16 -4 -34 -7 -40 -6 -13 -3
-278 4 -339 3 -27 9 -75 13 -105 9 -68 10 -162 1 -215 -10 -63 -18 -98 -22
-105 -7 -11 -18 -73 -17 -95 3 -96 52 -178 132 -222 87 -49 213 -32 286 38 30
29 71 100 79 136 2 10 10 44 19 75 28 109 38 283 23 418 -5 36 -11 96 -16 133
-37 330 88 786 326 1197 11 19 29 50 39 67 11 18 22 33 27 33 4 0 7 4 7 10 0
12 120 184 132 188 4 2 8 8 8 14 0 5 6 15 13 22 6 7 28 32 47 57 38 48 164
183 193 208 11 9 33 30 50 46 54 52 178 149 262 206 76 51 92 61 148 92 12 6
24 15 27 18 9 11 203 101 259 120 73 26 154 46 216 55 61 10 217 10 265 1 64
-11 180 -56 180 -69 0 -5 6 -8 13 -8 7 0 38 -24 69 -52 144 -137 211 -327 211
-608 0 -78 -8 -183 -18 -220 -2 -8 -6 -32 -9 -52 -3 -21 -11 -59 -17 -85 -6
-27 -12 -55 -14 -63 -2 -8 -4 -15 -5 -15 -1 0 -4 -13 -6 -29 -9 -52 -80 -255
-123 -351 -10 -22 -26 -59 -36 -82 -11 -24 -22 -43 -27 -43 -4 0 -8 -7 -8 -15
0 -8 -8 -29 -19 -47 -33 -59 -115 -193 -128 -208 -6 -8 -42 -58 -79 -110 -38
-52 -73 -100 -78 -106 -6 -6 -29 -33 -51 -60 -59 -73 -261 -273 -335 -332 -36
-29 -74 -60 -86 -70 -76 -63 -404 -255 -404 -235 0 3 -10 -1 -22 -9 -33 -21
-177 -64 -298 -88 -145 -30 -297 -87 -405 -153 -110 -67 -228 -175 -261 -239
-78 -153 31 -338 206 -351 56 -4 130 10 130 24 0 5 4 9 10 9 5 0 18 7 27 15
79 65 160 125 170 125 7 0 13 5 13 10 0 6 9 10 19 10 11 0 22 4 26 9 7 12 121
47 194 61 30 6 73 15 95 21 23 6 46 12 51 13 39 9 102 29 111 37 6 5 14 6 17
2 4 -3 12 -1 19 4 7 6 43 23 81 38 122 48 368 186 452 253 6 4 37 28 70 52 33
24 62 46 65 49 3 3 32 28 65 56 83 68 280 263 340 336 28 34 60 73 73 88 12
14 26 31 30 36 4 6 28 37 53 70 25 33 63 87 85 120 21 33 46 68 54 77 20 22
142 235 140 244 -1 4 2 10 7 13 7 5 66 117 69 131 1 5 11 29 44 105 34 78 89
239 115 335 18 68 65 284 70 320 3 25 8 59 10 75 2 17 4 30 5 30 14 0 12 374
-3 440 -3 11 -8 41 -11 66 -5 37 -30 139 -50 204 -7 24 -27 71 -36 87 -6 10
-10 22 -10 27 0 5 -19 42 -41 83 -81 143 -198 272 -322 354 -65 43 -193 108
-200 102 -2 -2 -10 2 -18 8 -8 6 -27 15 -44 19 -44 12 -45 12 -50 15 -6 3 -9
4 -55 13 -19 4 -46 10 -60 13 -64 15 -317 11 -415 -6z"/>
<path d="M1067 7508 c-155 -32 -243 -198 -179 -340 15 -35 172 -269 192 -288
3 -3 10 -12 15 -22 13 -21 264 -382 287 -411 9 -12 109 -155 222 -317 113
-162 209 -299 214 -305 4 -5 23 -32 42 -60 19 -27 37 -51 42 -53 4 -2 8 -10 8
-17 0 -7 3 -15 8 -17 10 -5 52 -66 52 -77 0 -5 3 -11 8 -13 6 -2 113 -150 172
-238 37 -54 133 -187 147 -202 9 -10 39 -29 67 -43 172 -84 356 32 358 225 0
46 -28 130 -44 130 -5 0 -8 7 -8 15 0 8 -5 15 -12 15 -6 0 -9 3 -5 6 3 3 -2
14 -11 23 -19 20 -107 147 -136 195 -10 17 -21 33 -25 36 -4 3 -58 79 -121
170 -63 91 -118 167 -122 168 -4 2 -8 8 -8 13 0 9 -38 68 -51 79 -5 4 -58 80
-109 155 -8 12 -27 39 -42 61 -218 311 -277 396 -313 449 -22 33 -43 62 -46
65 -5 5 -25 33 -157 225 -23 33 -45 65 -50 70 -4 6 -37 53 -72 105 -36 52 -84
113 -107 136 -59 56 -136 79 -216 62z"/>
<path d="M2948 2907 c-21 -5 -38 -13 -38 -18 0 -5 -6 -9 -12 -9 -22 -1 -65
-42 -128 -125 -34 -44 -72 -93 -85 -110 -13 -16 -37 -48 -54 -70 -17 -22 -34
-44 -38 -50 -5 -5 -91 -118 -193 -250 -101 -132 -188 -241 -192 -243 -4 -2 -8
-10 -8 -17 0 -7 -3 -15 -8 -17 -4 -1 -56 -66 -115 -143 -59 -77 -113 -147
-120 -155 -15 -18 -134 -173 -197 -255 -25 -33 -55 -71 -67 -85 -13 -13 -23
-28 -23 -31 0 -3 -8 -15 -17 -27 -46 -53 -54 -64 -80 -104 -97 -151 -134 -282
-128 -454 2 -50 9 -110 15 -135 7 -24 13 -48 15 -54 1 -5 5 -19 9 -30 5 -11
13 -33 19 -50 14 -38 63 -123 82 -142 8 -8 15 -18 15 -22 0 -15 124 -132 177
-167 30 -19 82 -48 116 -64 69 -31 192 -64 206 -55 5 3 12 2 14 -2 4 -7 152
-9 152 -3 0 1 18 3 40 6 137 14 348 120 445 223 26 28 74 86 93 111 20 28 245
370 249 379 2 3 44 67 93 141 50 74 92 140 95 145 8 16 123 190 129 195 4 3
12 17 20 32 8 15 22 37 33 47 10 11 18 23 18 26 0 8 134 210 143 213 4 2 7 7
7 12 0 5 27 50 61 101 78 118 96 161 95 229 -2 140 -129 255 -268 244 -65 -6
-178 -72 -178 -104 0 -6 -3 -10 -7 -10 -5 0 -24 -27 -43 -60 -19 -33 -38 -60
-42 -60 -5 0 -8 -4 -8 -9 0 -5 -29 -53 -65 -106 -36 -54 -65 -101 -65 -105 0
-5 -4 -10 -8 -12 -4 -1 -21 -25 -37 -52 -17 -27 -37 -59 -45 -71 -28 -41 -160
-239 -175 -263 -69 -107 -208 -320 -216 -332 -5 -8 -53 -80 -105 -160 -52 -80
-107 -158 -122 -174 -60 -64 -158 -102 -236 -92 -165 22 -269 211 -197 359 18
36 106 160 159 222 9 11 30 38 46 60 16 22 33 42 38 43 4 2 8 10 8 17 0 7 4
15 9 17 7 2 56 65 211 268 127 166 205 266 212 268 4 2 8 10 8 17 0 7 4 15 8
17 4 2 44 50 87 108 44 57 88 113 97 124 10 11 30 38 45 60 15 23 31 43 34 46
20 15 302 391 318 424 38 75 19 199 -41 266 -25 28 -88 75 -88 65 0 -3 -9 -1
-21 5 -27 15 -104 19 -151 7z"/>
</g>
</svg>
